<!DOCTYPE svg PUBLIC "-//W3C//DTD SVG 1.1//EN" "https://www.w3.org/Graphics/SVG/1.1/DTD/svg11.dtd"><svg xmlns="http://www.w3.org/2000/svg" class="sc-fPrdXf cCNWSb graph" data-testid="graph" role="img" aria-labelledby="polymath-graph-title" width="762" height="684"><title id="polymath-graph-title">Workflow Studio State Machine Graph</title><g transform="translate(12,12)" class="new-look-graph"><g class="nodes"><g class="node-container" transform="translate(197.5,22)"><g><circle class="sc-eoVZPG bMqRGU shape" r="22"/><text class="sc-lizKOf jKUTZw label"><tspan xml:space="preserve" text-anchor="middle" alignment-baseline="central">Start</tspan></text></g></g><g class="node-container" transform="translate(197.5,103.5)"><g class="sc-dSIIpw bevNfk node state Task" data-testid="graph-StartCrawler" data-state-id="StartCrawler" data-state-type="Task"><g class="new-look-state-node "><rect x="-120" y="-24.5" width="240" height="49" rx="3" ry="3"/><g class="handle" transform="translate(-120,-24.5)"><path d="M5,16 L5,34 M8,16 L8,34"/></g><g class="icon" transform="translate(-104,-24)"><rect fill="var(--color-background-container-header-etndi4, #fafafa)" x="0.0361026108" y="0.0181291967" width="48" height="48"/><line x1="47.5" y1="0.49122807" x2="47.5" y2="47.5" stroke="var(--color-board-placeholder-active-qurjro, #d5dbdb)" stroke-linecap="square"/><line x1="0.5" y1="0.49122807" x2="0.5" y2="47.5" stroke="var(--color-board-placeholder-active-qurjro, #d5dbdb)" stroke-linecap="square"/><use href="#icon-service-glue" aria-hidden="true"><title>AWS Glue</title></use></g><g class="text-lines" transform="translate(-48,-24.5)"><text transform="translate(0,17)" class="line1"><tspan xml:space="preserve" text-anchor="start">Glue: StartCrawler</tspan></text><text transform="translate(0,35.5)" class="line2 label"><tspan xml:space="preserve" text-anchor="start">StartCrawler</tspan></text></g></g></g></g><g class="node-container" transform="translate(197.5,187.5)"><g class="sc-dSIIpw bevNfk node state Task" data-testid="graph-GetCrawler" data-state-id="GetCrawler" data-state-type="Task"><g class="new-look-state-node "><rect x="-120" y="-24.5" width="240" height="49" rx="3" ry="3"/><g class="handle" transform="translate(-120,-24.5)"><path d="M5,16 L5,34 M8,16 L8,34"/></g><g class="icon" transform="translate(-104,-24)"><rect fill="var(--color-background-container-header-etndi4, #fafafa)" x="0.0361026108" y="0.0181291967" width="48" height="48"/><line x1="47.5" y1="0.49122807" x2="47.5" y2="47.5" stroke="var(--color-board-placeholder-active-qurjro, #d5dbdb)" stroke-linecap="square"/><line x1="0.5" y1="0.49122807" x2="0.5" y2="47.5" stroke="var(--color-board-placeholder-active-qurjro, #d5dbdb)" stroke-linecap="square"/><use href="#icon-service-glue" aria-hidden="true"><title>AWS Glue</title></use></g><g class="text-lines" transform="translate(-48,-24.5)"><text transform="translate(0,17)" class="line1"><tspan xml:space="preserve" text-anchor="start">Glue: GetCrawler</tspan></text><text transform="translate(0,35.5)" class="line2 label"><tspan xml:space="preserve" text-anchor="start">GetCrawler</tspan></text></g></g></g></g><g class="node-container" transform="translate(120,271.5)"><g class="sc-dSIIpw bevNfk node state Choice" data-testid="graph-Is_Running?" data-state-id="Is_Running?" data-state-type="Choice"><g class="new-look-state-node "><rect x="-120" y="-24.5" width="240" height="49" rx="3" ry="3"/><g class="handle" transform="translate(-120,-24.5)"><path d="M5,16 L5,34 M8,16 L8,34"/></g><g class="icon" transform="translate(-104,-24)"><rect fill="var(--color-background-container-header-etndi4, #fafafa)" x="0.0361026108" y="0.0181291967" width="48" height="48"/><line x1="47.5" y1="0.49122807" x2="47.5" y2="47.5" stroke="var(--color-board-placeholder-active-qurjro, #d5dbdb)" stroke-linecap="square"/><line x1="0.5" y1="0.49122807" x2="0.5" y2="47.5" stroke="var(--color-board-placeholder-active-qurjro, #d5dbdb)" stroke-linecap="square"/><use href="#icon-flow-choice"/></g><g class="text-lines" transform="translate(-48,-24.5)"><text transform="translate(0,17)" class="line1"><tspan xml:space="preserve" text-anchor="start">Choice state</tspan></text><text transform="translate(0,35.5)" class="line2 label"><tspan xml:space="preserve" text-anchor="start">Is_Running?</tspan></text></g></g></g></g><g class="node-container" transform="translate(120,372)"><g class="sc-dSIIpw bevNfk node state Wait" data-testid="graph-Wait" data-state-id="Wait" data-state-type="Wait"><g class="new-look-state-node "><rect x="-120" y="-24.5" width="240" height="49" rx="3" ry="3"/><g class="handle" transform="translate(-120,-24.5)"><path d="M5,16 L5,34 M8,16 L8,34"/></g><g class="icon" transform="translate(-104,-24)"><rect fill="var(--color-background-container-header-etndi4, #fafafa)" x="0.0361026108" y="0.0181291967" width="48" height="48"/><line x1="47.5" y1="0.49122807" x2="47.5" y2="47.5" stroke="var(--color-board-placeholder-active-qurjro, #d5dbdb)" stroke-linecap="square"/><line x1="0.5" y1="0.49122807" x2="0.5" y2="47.5" stroke="var(--color-board-placeholder-active-qurjro, #d5dbdb)" stroke-linecap="square"/><use href="#icon-flow-wait"/></g><g class="text-lines" transform="translate(-48,-24.5)"><text transform="translate(0,17)" class="line1"><tspan xml:space="preserve" text-anchor="start">Wait state</tspan></text><text transform="translate(0,35.5)" class="line2 label"><tspan xml:space="preserve" text-anchor="start">Wait</tspan></text></g></g></g></g><g class="node-container" transform="translate(400,372)"><g class="sc-dSIIpw bevNfk node state Task" data-testid="graph-Glue StartJobRun" data-state-id="Glue StartJobRun" data-state-type="Task"><g class="new-look-state-node "><rect x="-120" y="-24.5" width="240" height="49" rx="3" ry="3"/><g class="handle" transform="translate(-120,-24.5)"><path d="M5,16 L5,34 M8,16 L8,34"/></g><g class="icon" transform="translate(-104,-24)"><rect fill="var(--color-background-container-header-etndi4, #fafafa)" x="0.0361026108" y="0.0181291967" width="48" height="48"/><line x1="47.5" y1="0.49122807" x2="47.5" y2="47.5" stroke="var(--color-board-placeholder-active-qurjro, #d5dbdb)" stroke-linecap="square"/><line x1="0.5" y1="0.49122807" x2="0.5" y2="47.5" stroke="var(--color-board-placeholder-active-qurjro, #d5dbdb)" stroke-linecap="square"/><use href="#icon-service-glue" aria-hidden="true"><title>AWS Glue</title></use></g><g class="text-lines" transform="translate(-48,-24.5)"><text transform="translate(0,17)" class="line1"><tspan xml:space="preserve" text-anchor="start">Glue: StartJobRun</tspan></text><text transform="translate(0,35.5)" class="line2 label"><tspan xml:space="preserve" text-anchor="start">Glue StartJobRun</tspan></text></g></g></g></g><g class="node-container" transform="translate(369.5,456)"><g class="sc-dSIIpw bevNfk node state Choice" data-testid="graph-Glue_Job_Status" data-state-id="Glue_Job_Status" data-state-type="Choice"><g class="new-look-state-node "><rect x="-120" y="-24.5" width="240" height="49" rx="3" ry="3"/><g class="handle" transform="translate(-120,-24.5)"><path d="M5,16 L5,34 M8,16 L8,34"/></g><g class="icon" transform="translate(-104,-24)"><rect fill="var(--color-background-container-header-etndi4, #fafafa)" x="0.0361026108" y="0.0181291967" width="48" height="48"/><line x1="47.5" y1="0.49122807" x2="47.5" y2="47.5" stroke="var(--color-board-placeholder-active-qurjro, #d5dbdb)" stroke-linecap="square"/><line x1="0.5" y1="0.49122807" x2="0.5" y2="47.5" stroke="var(--color-board-placeholder-active-qurjro, #d5dbdb)" stroke-linecap="square"/><use href="#icon-flow-choice"/></g><g class="text-lines" transform="translate(-48,-24.5)"><text transform="translate(0,17)" class="line1"><tspan xml:space="preserve" text-anchor="start">Choice state</tspan></text><text transform="translate(0,35.5)" class="line2 label"><tspan xml:space="preserve" text-anchor="start">Glue_Job_Status</tspan></text></g></g></g></g><g class="node-container" transform="translate(617.5,556.5)"><g class="sc-dSIIpw bevNfk node state Task" data-testid="graph-Failed_Notification" data-state-id="Failed_Notification" data-state-type="Task"><g class="new-look-state-node "><rect x="-120" y="-24.5" width="240" height="49" rx="3" ry="3"/><g class="handle" transform="translate(-120,-24.5)"><path d="M5,16 L5,34 M8,16 L8,34"/></g><g class="icon" transform="translate(-104,-24)"><rect fill="var(--color-background-container-header-etndi4, #fafafa)" x="0.0361026108" y="0.0181291967" width="48" height="48"/><line x1="47.5" y1="0.49122807" x2="47.5" y2="47.5" stroke="var(--color-board-placeholder-active-qurjro, #d5dbdb)" stroke-linecap="square"/><line x1="0.5" y1="0.49122807" x2="0.5" y2="47.5" stroke="var(--color-board-placeholder-active-qurjro, #d5dbdb)" stroke-linecap="square"/><use href="#icon-service-sns" aria-hidden="true"><title>Simple Notification Service</title></use></g><g class="text-lines" transform="translate(-48,-24.5)"><text transform="translate(0,17)" class="line1"><tspan xml:space="preserve" text-anchor="start">SNS: Publish</tspan></text><text transform="translate(0,35.5)" class="line2 label"><tspan xml:space="preserve" text-anchor="start">Failed_Notification</tspan></text></g></g></g></g><g class="node-container" transform="translate(307,556.5)"><g class="sc-dSIIpw bevNfk node state Task" data-testid="graph-Success_Notification" data-state-id="Success_Notification" data-state-type="Task"><g class="new-look-state-node "><rect x="-120" y="-24.5" width="240" height="49" rx="3" ry="3"/><g class="handle" transform="translate(-120,-24.5)"><path d="M5,16 L5,34 M8,16 L8,34"/></g><g class="icon" transform="translate(-104,-24)"><rect fill="var(--color-background-container-header-etndi4, #fafafa)" x="0.0361026108" y="0.0181291967" width="48" height="48"/><line x1="47.5" y1="0.49122807" x2="47.5" y2="47.5" stroke="var(--color-board-placeholder-active-qurjro, #d5dbdb)" stroke-linecap="square"/><line x1="0.5" y1="0.49122807" x2="0.5" y2="47.5" stroke="var(--color-board-placeholder-active-qurjro, #d5dbdb)" stroke-linecap="square"/><use href="#icon-service-sns" aria-hidden="true"><title>Simple Notification Service</title></use></g><g class="text-lines" transform="translate(-48,-24.5)"><text transform="translate(0,17)" class="line1"><tspan xml:space="preserve" text-anchor="start">SNS: Publish</tspan></text><text transform="translate(0,35.5)" class="line2 label"><tspan xml:space="preserve" text-anchor="start">Success_Notification</tspan></text></g></g></g></g><g class="node-container" transform="translate(400,638)"><g><circle class="sc-eoVZPG bMqRGU shape" r="22"/><text class="sc-lizKOf jKUTZw label"><tspan xml:space="preserve" text-anchor="middle" alignment-baseline="central">End</tspan></text></g></g></g><g class="edges"><g class="sc-fMMURN mWaBa edge"><path id="state-StartCrawler:state-GetCrawler:normal" d="M197.5,128L197.5,130.91666666666666C197.5,133.83333333333334,197.5,139.66666666666666,197.5,145.5C197.5,151.33333333333334,197.5,157.16666666666666,197.5,160.08333333333334L197.5,163" marker-end="url(#arrowhead)" fill="none"/></g><g class="sc-fMMURN mWaBa edge"><path id="start:state-StartCrawler" d="M197.5,44L197.5,46.916666666666664C197.5,49.833333333333336,197.5,55.666666666666664,197.5,61.5C197.5,67.33333333333333,197.5,73.16666666666667,197.5,76.08333333333333L197.5,79" marker-end="url(#arrowhead)" fill="none"/></g><g class="sc-fMMURN mWaBa edge"><path id="state-GetCrawler:state-Is_Running?:normal" d="M152.29166666666666,212L146.9097222222222,214.91666666666666C141.52777777777777,217.83333333333334,130.76388888888889,223.66666666666666,125.38194444444444,229.5C120,235.33333333333334,120,241.16666666666666,120,244.08333333333334L120,247" marker-end="url(#arrowhead)" fill="none"/></g><g class="sc-fMMURN mWaBa edge"><path id="state-Is_Running?:state-Wait:choiceRule:0" d="M105.12935323383084,296L102.52446102819238,300.2916666666667C99.9195688225539,304.5833333333333,94.70978441127694,313.1666666666667,94.70978441127694,321.75C94.70978441127694,330.3333333333333,99.9195688225539,338.9166666666667,102.52446102819238,343.2083333333333L105.12935323383084,347.5" marker-end="url(#arrowhead)" fill="none"/><g data-testid="graph-Is_Running?-0" class="edge-label" transform="translate(94.70978441127694,321.75)"><rect x="-73.5" y="-8.25" width="147" height="16.5" class="sc-ktPPKK gIoaaj"/><text class="sc-YysOf xcFLz label"><tspan xml:space="preserve" text-anchor="middle" alignment-baseline="central">$.Crawler.State ~= "RUNNING"</tspan><title>$.Crawler.State ~= "RUNNING"</title></text></g></g><g class="sc-fMMURN mWaBa edge"><path id="state-Is_Running?:state-Glue StartJobRun:choiceDefault" d="M240,295.6683366733467L261.5833333333333,300.0152805611222C283.1666666666667,304.3622244488978,326.3333333333333,313.0561122244489,350.52155887230515,321.6947227788911C374.709784411277,330.3333333333333,379.9195688225539,338.9166666666667,382.5244610281923,343.2083333333333L385.12935323383084,347.5" marker-end="url(#arrowhead)" fill="none"/><g data-testid="graph-Is_Running?-Default" class="edge-label" transform="translate(350.52155887230515,321.6947227788911)"><rect x="-22" y="-8.25" width="44" height="16.5" class="sc-ktPPKK gIoaaj"/><text class="sc-YysOf xcFLz label"><tspan xml:space="preserve" text-anchor="middle" alignment-baseline="central">Default</tspan><title>Default</title></text></g></g><g class="sc-fMMURN mWaBa edge"><path id="state-Wait:state-GetCrawler:normal" d="M240,353.3601236476043L273.9166666666667,348.0917697063369C307.8333333333333,342.8234157650695,375.6666666666667,332.28670788253476,409.5833333333333,318.6433539412674C443.5,305,443.5,288.25,443.5,272.875C443.5,257.5,443.5,243.5,422.5,232.91463414634146C401.5,222.32926829268294,359.5,215.15853658536585,338.5,211.57317073170734L317.5,207.9878048780488" marker-end="url(#arrowhead)" fill="none"/></g><g class="sc-fMMURN mWaBa edge"><path id="state-Glue StartJobRun:state-Glue_Job_Status:normal" d="M382.2083333333333,396.5L380.09027777777777,399.4166666666667C377.9722222222222,402.3333333333333,373.7361111111111,408.1666666666667,371.6180555555555,414C369.5,419.8333333333333,369.5,425.6666666666667,369.5,428.5833333333333L369.5,431.5" marker-end="url(#arrowhead)" fill="none"/></g><g class="sc-fMMURN mWaBa edge"><path id="state-Glue StartJobRun:state-Failed_Notification:catch:0" d="M520,391.803536345776L542.4166666666666,395.50294695481335C564.8333333333334,399.2023575638507,609.6666666666666,406.6011787819254,632.0833333333334,417.30058939096267C654.5,428,654.5,442,654.5,457.375C654.5,472.75,654.5,489.5,651.3399668325042,502.1666666666667C648.1799336650083,514.8333333333334,641.8598673300165,523.4166666666666,638.6998341625207,527.7083333333334L635.5398009950248,532" marker-end="url(#arrowhead)" fill="none"/><g data-testid="graph-Glue StartJobRun-0" class="edge-label" transform="translate(632.0833333333334,417.30058939096267)"><rect x="-25" y="-8.25" width="50" height="16.5" class="sc-ktPPKK gIoaaj"/><text class="sc-YysOf xcFLz label"><tspan xml:space="preserve" text-anchor="middle" alignment-baseline="central">Catch #1</tspan><title>Catch #1</title></text></g></g><g class="sc-fMMURN mWaBa edge"><path id="state-Glue_Job_Status:state-Success_Notification:choiceRule:0" d="M339.0273631840796,480.5L333.68946932006634,484.7916666666667C328.35157545605307,489.0833333333333,317.67578772802653,497.6666666666667,312.33789386401327,506.25C307,514.8333333333334,307,523.4166666666666,307,527.7083333333334L307,532" marker-end="url(#arrowhead)" fill="none"/><g data-testid="graph-Glue_Job_Status-0" class="edge-label" transform="translate(312.33789386401327,506.25)"><rect x="-78" y="-8.25" width="156" height="16.5" class="sc-ktPPKK gIoaaj"/><text class="sc-YysOf xcFLz label"><tspan xml:space="preserve" text-anchor="middle" alignment-baseline="central">$.JobRunState ~= "SUCCEEDED"</tspan><title>$.JobRunState ~= "SUCCEEDED"</title></text></g></g><g class="sc-fMMURN mWaBa edge"><path id="state-Glue_Job_Status:state-Failed_Notification:choiceDefault" d="M452.62935323383084,480.5L467.191127694859,484.7916666666667C481.7529021558873,489.0833333333333,510.8764510779436,497.6666666666667,532.0572139303482,506.25C553.2379767827529,514.8333333333334,566.4759535655058,523.4166666666666,573.0949419568823,527.7083333333334L579.7139303482587,532" marker-end="url(#arrowhead)" fill="none"/><g data-testid="graph-Glue_Job_Status-Default" class="edge-label" transform="translate(532.0572139303482,506.25)"><rect x="-22" y="-8.25" width="44" height="16.5" class="sc-ktPPKK gIoaaj"/><text class="sc-YysOf xcFLz label"><tspan xml:space="preserve" text-anchor="middle" alignment-baseline="central">Default</tspan><title>Default</title></text></g></g><g class="sc-fMMURN mWaBa edge"><path id="state-Success_Notification:end:normal" d="M307,581L307,583.9166666666666C307,586.8333333333334,307,592.6666666666666,319.1251268050548,600.7332527827921C331.2502536101095,608.7998388989175,355.50050722021905,619.0996777978349,367.6256340252737,624.2495972472938L379.7507608303285,629.3995166967525" marker-end="url(#arrowhead)" fill="none"/></g><g class="sc-fMMURN mWaBa edge"><path id="state-Failed_Notification:end:normal" d="M617.5,581L617.5,583.9166666666666C617.5,586.8333333333334,617.5,592.6666666666666,584.857655625255,601.5114832312755C552.2153112505099,610.3562997958844,486.93062250101974,622.2125995917688,454.2882781262747,628.1407494897111L421.6459337515296,634.0688993876532" marker-end="url(#arrowhead)" fill="none"/></g></g><defs><marker id="arrowhead" markerWidth="8" markerHeight="6" refX="7" refY="3" orient="auto" class="sc-hTUWRQ ggZjYT"><polygon points="0 0, 8 3, 0 6"/></marker><marker id="highlighted-arrowhead" markerWidth="6" markerHeight="4" refX="5" refY="2" orient="auto" class="sc-hTUWRQ ggZjYT"><polygon points="0 0, 6 2, 0 4"/></marker><marker id="error-arrowhead" markerWidth="6" markerHeight="4" refX="5" refY="2" orient="auto" class="sc-hTUWRQ ggZjYT"><polygon points="0 0, 6 2, 0 4"/></marker><marker id="large-arrowhead" markerWidth="10" markerHeight="8" refX="9" refY="4" orient="auto" class="sc-hTUWRQ ggZjYT"><polygon points="0 0, 10 4, 0 8"/></marker><marker id="large-highlighted-arrowhead" markerWidth="5.5" markerHeight="4" refX="4.5" refY="2" orient="auto" class="sc-hTUWRQ ggZjYT"><polygon points="0 0, 5.5 2, 0 4"/></marker><marker id="large-error-arrowhead" markerWidth="10" markerHeight="8" refX="9" refY="4" orient="auto" class="sc-hTUWRQ ggZjYT"><polygon points="0 0, 10 4, 0 8"/></marker><linearGradient x1="0%" y1="100%" x2="100%" y2="0%" id="gradient-orange"><stop stop-color="#C8511B" offset="0%"/><stop stop-color="#FF9900" offset="100%"/></linearGradient><linearGradient x1="0%" y1="100%" x2="100%" y2="0%" id="gradient-turquoise"><stop stop-color="#055F4E" offset="0%"/><stop stop-color="#56C0A7" offset="100%"/></linearGradient><linearGradient x1="0%" y1="100%" x2="100%" y2="0%" id="gradient-blue"><stop stop-color="#2E27AD" offset="0%"/><stop stop-color="#527FFF" offset="100%"/></linearGradient><linearGradient x1="0%" y1="100%" x2="100%" y2="0%" id="gradient-pink"><stop stop-color="#B0084D" offset="0%"/><stop stop-color="#FF4F8B" offset="100%"/></linearGradient><linearGradient x1="0%" y1="100%" x2="100%" y2="0%" id="gradient-red"><stop stop-color="#BD0816" offset="0%"/><stop stop-color="#FF5252" offset="100%"/></linearGradient><linearGradient x1="0%" y1="100%" x2="100%" y2="0%" id="gradient-green"><stop stop-color="#1B660F" offset="0%"/><stop stop-color="#6CAE3E" offset="100%"/></linearGradient><linearGradient x1="0%" y1="100%" x2="100%" y2="0%" id="gradient-purple"><stop stop-color="#4D27A8" offset="0%"/><stop stop-color="#A166FF" offset="100%"/></linearGradient><linearGradient x1="0%" y1="100%" x2="100%" y2="0%" id="gradient-grey"><stop stop-color="#DCDCDC" offset="0%"/><stop stop-color="#F6F5F7" offset="100%"/></linearGradient><linearGradient x1="0%" y1="100%" x2="100%" y2="0%" id="gradient-light-pink"><stop stop-color="#DD344C" offset="0%"/><stop stop-color="#DD344C" offset="100%"/></linearGradient>,<linearGradient x1="0%" y1="100%" x2="100%" y2="0%" id="gradient-ag"><stop stop-color="#BC1356" offset="0%"/><stop stop-color="#F34482" offset="100%"/></linearGradient><linearGradient x1="0%" y1="100%" x2="100%" y2="0%" id="gradient-athena"><stop stop-color="#5930B5" offset="0%"/><stop stop-color="#945DF2" offset="100%"/></linearGradient><linearGradient x1="0%" y1="100%" x2="100%" y2="0%" id="gradient-emr"><stop stop-color="#5930B5" offset="0%"/><stop stop-color="#945DF2" offset="100%"/></linearGradient><linearGradient x1="0%" y1="100%" x2="100%" y2="0%" id="gradient-glue"><stop stop-color="#5930B5" offset="0%"/><stop stop-color="#945DF2" offset="100%"/></linearGradient><linearGradient x1="0%" y1="100%" x2="100%" y2="0%" id="gradient-sns"><stop stop-color="#BC1356" offset="0%"/><stop stop-color="#F34482" offset="100%"/></linearGradient><linearGradient x1="0%" y1="100%" x2="100%" y2="0%" id="gradient-states"><stop stop-color="#BC1356" offset="0%"/><stop stop-color="#F34482" offset="100%"/></linearGradient><linearGradient x1="0%" y1="100%" x2="100%" y2="0%" id="gradient-generic"><stop stop-color="#ccc" offset="0%"/><stop stop-color="#ddd" offset="100%"/></linearGradient><g stroke-width="1" fill="none" fill-rule="evenodd" id="icon-flow-wait"><path d="M26.75,8.85825893 L26.75,10.3582589 L25,10.3582589 L25.0010332,13.2887186 C27.2395643,13.4625704 29.3159269,14.2145278 31.0809903,15.3954598 L32.3188424,13.6912711 L34.7458934,15.4546269 L33.3682881,17.3513419 C35.4674483,19.6240431 36.75,22.6622436 36.75,26 C36.75,33.0416306 31.0416306,38.75 24,38.75 C16.9583694,38.75 11.25,33.0416306 11.25,26 C11.25,22.7657627 12.4542298,19.8127884 14.4387685,17.5649977 L12.9047966,15.4546269 L15.3318476,13.6912711 L16.6858812,15.555197 C18.2387522,14.4657629 20.0456704,13.7138336 22.0001068,13.4059384 L22,10.3582589 L20.25,10.3582589 L20.25,8.85825893 L26.75,8.85825893 Z M24,14.75 C17.7867966,14.75 12.75,19.7867966 12.75,26 C12.75,32.2132034 17.7867966,37.25 24,37.25 C30.2132034,37.25 35.25,32.2132034 35.25,26 C35.25,19.7867966 30.2132034,14.75 24,14.75 Z M24.4666648,19.3452148 L24.466,26.499 L30.9387207,26.4993034 L30.9387207,27.9993034 L23.7166648,27.9993034 C23.336969,27.9993034 23.0231738,27.7171495 22.9735114,27.3510739 L22.9666648,27.2493034 L22.9666648,19.3452148 L24.4666648,19.3452148 Z" fill-rule="nonzero" fill="#0073BB"/></g><g stroke="none" stroke-width="1" fill="none" fill-rule="evenodd" id="icon-flow-choice"><g transform="translate(9.252020, 8.729185)" fill="#0073BB" fill-rule="nonzero"><path d="M13.7176503,0.219669914 C13.9839168,-0.0465966484 14.4005805,-0.0708026996 14.694192,0.147051761 L14.7783104,0.219669914 L26.7991257,12.2404852 C27.0653923,12.5067518 27.0895983,12.9234154 26.8717439,13.2170269 L26.7991257,13.3011454 L19.848,20.251 L27.063,27.58 L27.0635443,24.4725437 C27.0635443,24.0583302 27.3993308,23.7225437 27.8135443,23.7225437 C28.1901021,23.7225437 28.5018441,24.0000532 28.5554124,24.3617142 L28.5635443,24.4725437 L28.5635443,29.4222912 C28.5635443,29.4735748 28.5583971,29.5236562 28.5485912,29.5720469 L28.5290567,29.6477745 L28.4912259,29.7440224 L28.4674556,29.7898473 L28.4399848,29.8348433 L28.3922808,29.8993609 L28.3266417,29.9693147 L28.2903734,30.0012261 L28.2103598,30.0588356 L28.1372883,30.0990133 L28.0408973,30.1372113 L27.9243738,30.1641593 C27.8841362,30.1698129 27.8491297,30.1722912 27.8135443,30.1722912 L22.8637969,30.1722912 C22.4495833,30.1722912 22.1137969,29.8365048 22.1137969,29.4222912 C22.1137969,29.0457334 22.3913063,28.7339914 22.7529674,28.6804231 L22.8637969,28.6722912 L26.032,28.672 L18.787,21.312 L14.7783104,25.3219606 C14.5120439,25.5882272 14.0953802,25.6124333 13.8017687,25.3945788 L13.7176503,25.3219606 L9.63,21.234 L2.386,28.671 L5.69974747,28.6722912 L5.81057697,28.6804231 C6.17223802,28.7339914 6.44974747,29.0457334 6.44974747,29.4222912 C6.44974747,29.801987 6.16759359,30.1157822 5.80151803,30.1654446 L5.69974747,30.1722912 L0.75,30.1722912 L0.645175107,30.1650238 L0.571316134,30.150876 L0.491748953,30.1266437 L0.399838514,30.0857012 L0.323957521,30.0396165 L0.243169757,29.975129 L0.170912131,29.8989347 L0.109961584,29.8134582 L0.0656949991,29.7297074 L0.0297396696,29.6320944 L0.0076057584,29.5294944 L6.67910172e-13,29.4222912 L6.67910172e-13,24.4725437 L0.00813192572,24.3617142 C0.0617002376,24.0000532 0.373442216,23.7225437 0.75,23.7225437 C1.12969577,23.7225437 1.44349096,24.0046976 1.49315338,24.3707732 L1.5,24.4725437 L1.499,27.433 L8.569,20.174 L1.69683498,13.3011454 C1.43056842,13.0348788 1.40636237,12.6182151 1.62421683,12.3246036 L1.69683498,12.2404852 L13.7176503,0.219669914 Z M14.3527697,23.728356 L25.2081355,12.7708153 L14.2479803,1.81066017 L3.28782524,12.7708153 L9.616,19.099 L14.3527697,23.728356 Z" fill="false"/><path d="M15.2319803,14.0468153 L15.2319803,13.2668153 C16.0033137,12.8508153 16.5579803,12.4218153 16.8959803,11.9798153 C17.2339803,11.5378153 17.4029803,11.0178153 17.4029803,10.4198153 C17.4029803,9.65714861 17.151647,9.06131528 16.6489803,8.63231528 C16.1463137,8.20331528 15.448647,7.98881528 14.5559803,7.98881528 C13.6979803,7.98881528 12.874647,8.19248195 12.0859803,8.59981528 L12.0859803,8.59981528 L12.0859803,10.3288153 C12.8313137,9.98214861 13.4943137,9.80881528 14.0749803,9.80881528 C14.395647,9.80881528 14.6404803,9.87814861 14.8094803,10.0168153 C14.9784803,10.1554819 15.0629803,10.3591486 15.0629803,10.6278153 C15.0629803,10.9138153 14.9763137,11.1651486 14.8029803,11.3818153 C14.629647,11.5984819 14.343647,11.8151486 13.9449803,12.0318153 L13.9449803,12.0318153 L13.1909803,12.4348153 L13.3339803,14.0468153 L15.2319803,14.0468153 Z M14.3089803,17.4398153 C14.7249803,17.4398153 15.0608137,17.3141486 15.3164803,17.0628153 C15.572147,16.8114819 15.6999803,16.4821486 15.6999803,16.0748153 C15.6999803,15.6674819 15.572147,15.3381486 15.3164803,15.0868153 C15.0608137,14.8354819 14.7249803,14.7098153 14.3089803,14.7098153 C13.8929803,14.7098153 13.557147,14.8354819 13.3014803,15.0868153 C13.0458137,15.3381486 12.9179803,15.6674819 12.9179803,16.0748153 C12.9179803,16.4821486 13.0458137,16.8114819 13.3014803,17.0628153 C13.557147,17.3141486 13.8929803,17.4398153 14.3089803,17.4398153 Z" fill="false"/></g></g><g stroke="none" stroke-width="1" fill="none" fill-rule="evenodd" id="icon-service-glue"><rect fill="#FFFFFF" x="0" y="0" width="48" height="48"/><polygon fill="url(#gradient-glue)" fill-rule="nonzero" points="0 0 48 0 48 48 0 48"/><g transform="translate(12.857143, 6.857143)" fill="#FFFFFF"><path d="M11.4110924,34.7983206 C11.2500884,34.7986339 11.094057,34.7425601 10.970084,34.6398319 L6.79428571,31.1944538 C6.57103391,31.0085632 6.48834756,30.7026237 6.58756303,30.4295798 C6.68620434,30.1567421 6.94517255,29.9749134 7.23529412,29.9747899 L9.30252101,29.9747899 L9.30252101,27.907563 L10.6806723,27.907563 L10.6806723,30.6638655 C10.6806723,31.0444315 10.3721626,31.3529412 9.99159664,31.3529412 L9.15092437,31.3529412 L11.4042017,33.2134454 L13.6161345,31.3529412 L12.7478992,31.3529412 C12.3673332,31.3529412 12.0588235,31.0444315 12.0588235,30.6638655 L12.0588235,27.907563 L13.4369748,27.907563 L13.4369748,29.9747899 L15.5042017,29.9747899 C15.7914588,29.9776242 16.046819,30.1583697 16.1449919,30.4283452 C16.2431648,30.6983206 16.1635501,31.0008753 15.9452101,31.187563 L11.8521008,34.6329412 C11.7290858,34.7381552 11.5729568,34.7967036 11.4110924,34.7983206 Z"/><path d="M17.5507563,8.95798319 L17.3853782,10.3361345 C18.5201274,10.4194541 19.6390655,10.6511183 20.7136134,11.0252101 C19.4939496,11.5557983 16.0554622,12.0588235 11.3697479,12.0588235 C6.54621849,12.0588235 3.10084034,11.507563 2.00521008,11.0252101 C2.99747899,10.6048739 5.8502521,10.0398319 10.6806723,9.99159664 L10.6806723,8.61344538 C1.30235294,8.70991597 0.344537815,10.3292437 0.344537815,11.0252101 C0.341471846,11.0710973 0.341471846,11.117138 0.344537815,11.1630252 C0.358539329,11.2474457 0.386483587,11.3289498 0.427226891,11.4042017 L0.565042017,11.6453782 C0.595496695,11.7002023 0.632520414,11.7511099 0.675294118,11.7969748 C0.745398056,11.8656425 0.821499136,11.927907 0.902689076,11.9830252 L8.61344538,24.007395 L8.61344538,25.8472269 C8.61250869,26.1355861 8.79122213,26.3940332 9.06134454,26.494958 C9.81457775,26.7803536 10.6125198,26.9296761 11.4179832,26.9359664 C12.1983242,26.9336377 12.9707224,26.7791581 13.6919328,26.4811765 C13.9519555,26.377632 14.123518,26.1270963 14.1260504,25.8472269 L14.1260504,24.0005042 L21.8023529,11.989916 L21.8023529,11.989916 C22.1543874,11.7934672 22.378872,11.4280272 22.394958,11.0252101 C22.394958,10.2878992 21.8230252,9.46789916 17.5507563,8.95798319 Z M12.8581513,23.4285714 C12.78651,23.5394806 12.7482413,23.6686374 12.7478992,23.8006723 L12.7478992,25.3579832 C11.8502992,25.6368957 10.8891966,25.6368957 9.99159664,25.3579832 L9.99159664,23.8006723 C9.99125446,23.6686374 9.95298578,23.5394806 9.88134454,23.4285714 L3.03882353,12.7410084 C5.78684404,13.2406038 8.57698824,13.4713849 11.3697479,13.430084 C14.1577073,13.4646521 16.9426332,13.2339209 19.6868908,12.7410084 L12.8581513,23.4285714 Z"/><path d="M15.5042017,10.6806723 L12.7478992,10.6806723 C12.3673332,10.6806723 12.0588235,10.3721626 12.0588235,9.99159664 L12.0588235,7.23529412 C12.0588235,6.85472816 12.3673332,6.54621849 12.7478992,6.54621849 L15.5042017,6.54621849 C15.8847676,6.54621849 16.1932773,6.85472816 16.1932773,7.23529412 L16.1932773,9.99159664 C16.1932773,10.3721626 15.8847676,10.6806723 15.5042017,10.6806723 Z M13.4369748,9.30252101 L14.8151261,9.30252101 L14.8151261,7.92436975 L13.4369748,7.92436975 L13.4369748,9.30252101 Z"/><path d="M14.1260504,4.4789916 L11.3697479,4.4789916 C10.9891819,4.4789916 10.6806723,4.17048193 10.6806723,3.78991597 L10.6806723,1.03361345 C10.6806723,0.653047483 10.9891819,0.344537815 11.3697479,0.344537815 L14.1260504,0.344537815 C14.5066164,0.344537815 14.8151261,0.653047483 14.8151261,1.03361345 L14.8151261,3.78991597 C14.8151261,4.17048193 14.5066164,4.4789916 14.1260504,4.4789916 Z M12.0588235,3.10084034 L13.4369748,3.10084034 L13.4369748,1.72268908 L12.0588235,1.72268908 L12.0588235,3.10084034 Z"/><path d="M8.61344538,7.92436975 L5.85714286,7.92436975 C5.4765769,7.92436975 5.16806723,7.61586008 5.16806723,7.23529412 L5.16806723,4.4789916 C5.16806723,4.09842563 5.4765769,3.78991597 5.85714286,3.78991597 L8.61344538,3.78991597 C8.99401134,3.78991597 9.30252101,4.09842563 9.30252101,4.4789916 L9.30252101,7.23529412 C9.30252101,7.61586008 8.99401134,7.92436975 8.61344538,7.92436975 Z M6.54621849,6.54621849 L7.92436975,6.54621849 L7.92436975,5.16806723 L6.54621849,5.16806723 L6.54621849,6.54621849 Z"/></g></g><g stroke="none" stroke-width="1" fill="none" fill-rule="evenodd" id="icon-service-sns"><polygon fill="url(#gradient-sns)" fill-rule="nonzero" points="0 0 48 0 48 48 0 48"/><g transform="translate(6.857143, 8.571429)" fill="#FFFFFF"><path d="M27.7901299,23.6384416 L27.7901299,24.1558442 C27.7901299,24.0935065 27.7901299,24.0311688 27.7901299,23.9688312 C27.7775636,23.8590598 27.7775636,23.748213 27.7901299,23.6384416 L27.7901299,23.6384416 Z"/><path d="M19.6051948,11.2207792 L19.5428571,11.3392208 C19.5678154,11.3007712 19.5867361,11.258725 19.598961,11.2145455 L19.6051948,11.2207792 Z"/><path d="M14.2005195,9.05757391 C13.6457143,9.05757391 8.74597403,9.01402597 8.74597403,10.8654545 C8.7438301,10.9827418 8.76501986,11.0992855 8.80831169,11.2083117 C8.82653378,11.2531204 8.84734819,11.2968307 8.87064935,11.3392208 L12.2618182,18.8197403 L12.2618182,22.6909091 C12.2618182,23.0836364 12.4238961,23.3142857 12.7667532,23.3142857 L12.9288312,23.3142857 C13.7125247,23.1091801 14.440768,22.7322822 15.0607792,22.2109091 L15.4784416,21.9179221 C15.6592098,21.8049511 15.7697195,21.6074445 15.7714286,21.3942857 L15.7714286,18.8384416 L19.5428571,11.3579221 L19.5428571,11.3579221 C19.5678154,11.3194725 19.5867361,11.2774263 19.598961,11.2332468 C19.6422529,11.1242205 19.6634426,11.0076769 19.6612987,10.8903896 C19.6612987,9.01402597 14.7615584,9.05757391 14.2005195,9.05757391 Z M14.2005195,10.2046753 C16.401039,10.2046753 17.8161039,10.5911688 18.2898701,10.8654545 C17.8161039,11.1397403 16.4197403,11.5262338 14.2005195,11.5262338 C11.9812987,11.5262338 10.5911688,11.1397403 10.1174026,10.8654545 C10.5974026,10.5974026 12,10.2046753 14.2005195,10.2046753 Z M14.6555844,18.3085714 C14.6555844,18.3958442 14.6555844,18.5516883 14.6555844,18.7137662 L14.6555844,21.1511688 L14.4124675,21.3007792 C14.0571429,21.5064935 13.7454545,21.6498701 13.3901299,21.8368831 L13.3901299,18.7012987 C13.3886333,18.6158595 13.3717396,18.5313906 13.3402597,18.4519481 L10.6846753,12.3802597 C11.8389408,12.6374106 13.0179565,12.7670187 14.2005195,12.7667532 C15.348723,12.7658697 16.4936743,12.6446888 17.6166234,12.4051948 L14.6555844,18.3085714 Z"/><path d="M25.5584416,26.2877922 C23.1182592,28.0539489 20.1800425,28.9991553 17.1677922,28.987013 C10.3854545,28.987013 4.60051948,24.5797403 3.24155844,18.0779221 C4.49932636,18.0180834 5.56391168,17.129231 5.84727273,15.9023377 L9.02649351,15.9023377 L9.02649351,14.7241558 L5.85974026,14.7241558 C5.6123242,13.4628894 4.53770095,12.5322348 3.25402597,12.4675325 C4.38212696,7.89245649 7.68622619,4.16375023 12.0923456,2.49340779 C16.498465,0.823065355 21.4440467,1.42435019 25.3215584,4.10181818 L26.0322078,3.11688312 C21.7378924,0.149676116 16.24326,-0.470649087 11.3954912,1.46444787 C6.54772241,3.39954482 2.99061722,7.63307653 1.92,12.7418182 C0.932896899,13.199098 0.301171353,14.1879667 0.301171353,15.2758442 C0.301171353,16.3637216 0.932896899,17.3525903 1.92,17.8098701 C3.41748481,25.0404909 9.78373505,30.2277095 17.1677922,30.2337964 C20.4315682,30.2402168 23.6134536,29.2123238 26.2566234,27.2976623 L25.5584416,26.2877922 Z M1.55844156,15.2727273 C1.55271604,14.4800639 2.14291159,13.8093871 2.92987013,13.7142732 L3.11688312,13.7142732 C3.74777503,13.7117621 4.31794978,14.08986 4.56113229,14.6720054 C4.8043148,15.2541508 4.67252426,15.9254842 4.22730765,16.3724888 C3.78209103,16.8194934 3.11129125,16.9539736 2.52817587,16.7131263 C1.94506049,16.472279 1.56468037,15.9036242 1.56467532,15.2727273 L1.55844156,15.2727273 Z"/><path d="M3.02961039,13.7142857 L2.9361039,13.7142857 L3.02961039,13.7142857 Z"/><path d="M31.1688312,18.0779221 C32.6428447,18.078856 33.8661509,16.9388268 33.9689704,15.4684034 C34.0717898,13.99798 33.0190455,12.6987979 31.5592463,12.4945848 C30.0994471,12.2903718 28.7306038,13.2507951 28.425974,14.692987 L25.1844156,14.692987 L25.1844156,6.98181818 L26.8675325,6.98181818 C27.0563221,8.42101044 28.3118379,9.47848632 29.7621759,9.4198723 C31.2125139,9.36125828 32.3786008,8.20591564 32.4506373,6.75618235 C32.5226737,5.30644905 31.4768647,4.04119855 30.0394816,3.83909528 C28.6020985,3.63699201 27.2479353,4.56479439 26.9174026,5.97818182 L24.6233766,5.94701299 C24.46336,5.91295115 24.296661,5.95657638 24.173843,6.06465628 C24.0510249,6.17273618 23.9865594,6.33253568 24,6.49558442 L24,14.6742857 L19.2062338,14.6742857 L19.2062338,15.8275325 L24,15.8275325 L24,23.9812987 C24,24.3255801 24.2790952,24.6046753 24.6233766,24.6046753 L26.5807792,24.6046753 C26.8643557,26.0184294 28.1735338,26.9869377 29.6083906,26.8444521 C31.0432474,26.7019665 32.1363845,25.4949011 32.1363845,24.052987 C32.1363845,22.6110729 31.0432474,21.4040075 29.6083906,21.2615219 C28.1735338,21.1190363 26.8643557,22.0875446 26.5807792,23.5012987 L25.2218182,23.5012987 L25.1906494,15.8212987 L28.425974,15.8212987 C28.689181,17.1289264 29.8349914,18.0716159 31.1688312,18.0779221 Z M31.1688312,13.7142857 C32.0295347,13.7142857 32.7272727,14.4120238 32.7272727,15.2727273 C32.7272727,16.1334308 32.0295347,16.8311688 31.1688312,16.8311688 C30.3081277,16.8311688 29.6103896,16.1334308 29.6103896,15.2727273 C29.6103896,14.4120238 30.3081277,13.7142857 31.1688312,13.7142857 Z M29.6103896,5.04311688 C30.2387555,5.04566069 30.8035988,5.42680178 31.0411357,6.00854606 C31.2786727,6.59029034 31.1420368,7.25785835 30.6950374,7.69949371 C30.2480381,8.14112907 29.5788693,8.26969613 29.0000349,8.02515366 C28.4212006,7.7806112 28.046906,7.21120799 28.0519481,6.58285714 C28.0519347,6.16901677 28.2171807,5.77230541 28.5109782,5.48084892 C28.8047757,5.18939244 29.2027964,5.02732533 29.6166234,5.03064935 L29.6103896,5.04311688 Z M29.2987013,22.4415439 C30.1351427,22.4379775 30.8252457,23.0953453 30.8622859,23.9309738 C30.8993261,24.7666023 30.2700924,25.4824511 29.4366146,25.5528913 C28.6031369,25.6233315 27.8626884,25.0232393 27.7589582,24.1932468 L27.7589582,24.1932468 C27.7589582,24.1309091 27.7589582,24.0685714 27.7589582,24.0062338 C27.7587404,23.8950352 27.7712901,23.7841792 27.7963636,23.6758442 L27.7963636,23.6758442 C27.9497157,22.9654386 28.5720416,22.4541501 29.2987013,22.4415439 L29.2987013,22.4415439 Z"/></g></g></defs></g><style data-styled="true" data-styled-version="5.3.11">.bevNfk{cursor:pointer;}/*!sc*/
data-styled.g123[id="sc-dSIIpw"]{content:"bevNfk,"}/*!sc*/
.mWaBa{stroke:#555;background-color:#555;stroke-width:1px;}/*!sc*/
data-styled.g124[id="sc-fMMURN"]{content:"mWaBa,"}/*!sc*/
.gIoaaj{stroke-width:0;stroke:none;fill:#f2f3f3;}/*!sc*/
data-styled.g125[id="sc-ktPPKK"]{content:"gIoaaj,"}/*!sc*/
.xcFLz{font-size:10px;line-height:12.5;stroke:none;}/*!sc*/
data-styled.g126[id="sc-YysOf"]{content:"xcFLz,"}/*!sc*/
.ggZjYT{fill:var(--color-text-form-secondary-btuye6,#687078);}/*!sc*/
data-styled.g152[id="sc-hTUWRQ"]{content:"ggZjYT,"}/*!sc*/
.jKUTZw{font-weight:400;font-size:12px;line-height:16px;font-family:Amazon Ember,Arial,Roboto,Arial,sans-serif;text-shadow:none;fill:var(--color-text-button-primary-default-qh066v,#16191f);}/*!sc*/
data-styled.g153[id="sc-lizKOf"]{content:"jKUTZw,"}/*!sc*/
.bMqRGU{fill:#fff9cc;stroke:var(--color-text-form-secondary-btuye6,#687078);stroke-width:0.6px;}/*!sc*/
data-styled.g154[id="sc-eoVZPG"]{content:"bMqRGU,"}/*!sc*/
</style><style>
.new-look-state-node &gt; rect:first-of-type {
  stroke: #687078;
  stroke-width: 1px;
  fill: #FFFFFF;
}

.new-look-state-node .error-icon circle {
 stroke-linejoin: round;
}

.new-look-state-node .error-icon circle, .new-look-state-node .error-icon path {
 stroke: var(--color-border-status-error-si9bvu, #d13212);
 fill: none;
 stroke-width: 2px;
}

.new-look-state-node.has-errors &gt; rect:first-of-type {
 stroke: var(--color-border-status-error-si9bvu, #d13212);
 fill: var(--color-background-status-error-qqw3y6, #fdf3f1);
}

.new-look-state-node.has-errors &gt; .bounding-box &gt; .new-look-state-node-sub &gt; rect {
  stroke: var(--color-border-status-error-si9bvu, #d13212);
  fill: var(--color-background-status-error-qqw3y6, #fdf3f1);
}

.new-look-state-node .handle path {
  stroke: var(--color-border-dropdown-item-hover-t6obhh, #879596);
  stroke-width: 1px;
  fill: none;
}

.new-look-state-node {
  font-weight: 400;
  font-family: Amazon Ember, Arial, Roboto, Arial, sans-serif;
  text-shadow: none;
}

.new-look-state-node .line1 {
  fill: #687078;
  font-size: 12px;
}

.new-look-state-node .line2 {
  fill: #16191f;
}

.selected.node &gt; .new-look-state-node &gt; rect,
.selected.node &gt; .new-look-state-node &gt; .new-look-state-node &gt; rect,
.selected.node &gt; .new-look-state-node &gt; .bounding-box &gt; rect,
.selected.node &gt; .new-look-state-node.has-errors &gt; rect,
.selected.node &gt; .new-look-state-node.has-errors &gt; .bounding-box &gt; rect,
.selected.node &gt; .new-look-state-node.has-errors &gt; .new-look-state-node &gt; rect,
.selected.node &gt; .new-look-state-node &gt; .bounding-box &gt; .new-look-state-node-sub &gt; rect
 {
  stroke: var(--color-border-status-info-fjyzd6, #0073bb);
  fill: var(--color-background-status-info-60ssq8, #f1faff);
  stroke-width: 1px;
}

.new-look-state-node-sub .item-source.not-specified {
  height: 15px;
  color: #687078;
  font-family: "Amazon Ember";
  font-size: 12px;
  letter-spacing: 0;
  line-height: 16px;
  font-weight: 400;
}
.new-look-state-node-sub .item-source .item-source_name{
  font-weight: 600;
}
.new-look-state-node-sub .item-source.not-specified .item-source_name{
  font-weight: 400;
}

.new-look-state-node-sub .item-source.not-specified {
  font-style: italic;
}

.new-look-state-node-sub &gt; rect,
.new-look-state-node &gt; .bounding-box &gt; rect {
  stroke: var(--color-border-control-default-ie1oqq, #687078);
  fill: #ffffff;
}

.new-look-graph .drag-source {
  opacity: 0.2;
}

.new-look-graph .edge, .new-look-graph path.starting-connection {
  stroke-width: 1px;
  stroke: var(--color-text-form-secondary-btuye6, #687078);
  marker-end: url(#large-arrowhead);
}

.new-look-graph .edge-label {
  cursor: pointer;
}

.new-look-graph .edge-label rect {
  stroke-width: 1px;
  stroke: var(--color-border-control-default-ie1oqq, #687078);
  fill: #fafafa;
}

.new-look-graph .edge-label.selected rect {
  stroke: var(--color-border-status-info-fjyzd6, #0073bb);
  fill: var(--color-background-status-info-60ssq8, #f1faff);
  stroke-width: 0.6px;
}



.new-look-graph .edge-label .label {
  fill: var(--color-text-form-secondary-btuye6, #687078);
  font-family: Amazon Ember, Arial, Roboto, Arial, sans-serif;
}

/* centering the shape text */
@-moz-document url-prefix() {
  .new-look-graph .shape + text,
  .new-look-graph .edge-label text {
    transform: translateY(3.5px);
  }
}

.new-look-graph .edge path {
  marker-end: url(#large-arrowhead) !important;
}

.new-look-graph .edge.selected path{
  stroke: var(--color-border-status-info-fjyzd6, #0073bb);
  stroke-width: 1.1px;
}

.new-look-graph .edge.dragging-over path, .new-look-graph  g.dragging-over .starting-connection {
  stroke: #5C86FF;
  stroke-width: 2px;
}

.new-look-graph .edge.dragging-over path, .new-look-graph .dragging-over path.starting-connection {
  marker-end: url(#large-highlighted-arrowhead) !important;
}

.new-look-graph .edge.dragging-over .edge-label text {
  fill: #5C86FF;
}

#large-highlighted-arrowhead {
  fill: #5C86FF;
}

#large-highlighted-arrowhead path {
  stroke: none;
}

.new-look-graph .edge.drop-not-supported path, g.drop-not-supported .starting-connection {
  stroke: red;
}

.new-look-graph .edge.drop-not-supported .edge-label text {
  fill: red;
}

.new-look-graph .edge.drop-not-supported path {
  marker-end: url(#large-error-arrowhead) !important;
}

#large-error-arrowhead {
  fill: red;
}

.node-container * &gt; .icon  {
  &gt; rect {
    fill: #fafafa;
  }
  &gt; line {
    stroke: #d5dbdb;
  }
}


.node.Placeholder.dragging-over rect {
  stroke: var(--color-border-status-info-fjyzd6, #0073bb);
  fill: var(--color-background-status-info-60ssq8, #f1faff);
  stroke-width: 2px;
}

.node.Placeholder.dragging-over .label {
  fill: var(--color-text-status-info-f9d9f2, #0073bb);
}

g.Placeholder rect {
  stroke-dasharray: 5 4;
  stroke: var(--color-border-dropdown-item-hover-t6obhh, #879596);
  fill: #ffffff;
  stroke-width: 1px;
}

g.Placeholder .label {
  font-style: italic;
  fill: var(--color-text-input-placeholder-lhl4lu, #687078);
}

.node.Placeholder.drop-not-supported rect {
  stroke: red;
}

.node.Placeholder.drop-not-supported .label {
  fill: red;
}
</style><style>.line2 { font-size: 14px }</style></svg>